<?xml version="1.0" standalone="no"?>
<!DOCTYPE svg PUBLIC "-//W3C//DTD SVG 20010904//EN"
 "http://www.w3.org/TR/2001/REC-SVG-20010904/DTD/svg10.dtd">
<svg version="1.0" xmlns="http://www.w3.org/2000/svg"
 width="512.000000pt" height="256.000000pt" viewBox="0 0 512.000000 256.000000"
 preserveAspectRatio="xMidYMid meet">

<g transform="translate(0.000000,256.000000) scale(0.100000,-0.100000)"
fill="#000000" stroke="none">
<path d="M1305 1736 c-119 -284 -125 -749 -14 -1083 18 -54 24 -63 45 -63 13
0 24 1 24 3 0 2 -11 37 -25 78 -82 240 -100 531 -50 809 14 75 53 228 71 274
4 12 0 16 -15 16 -16 0 -26 -10 -36 -34z"/>
<path d="M1500 1767 c0 -2 9 -29 20 -61 33 -96 69 -275 80 -401 19 -202 -23
-510 -97 -701 -3 -10 3 -14 20 -14 24 0 29 8 57 96 90 282 95 633 14 934 -32
116 -48 150 -74 150 -11 0 -20 -2 -20 -3z"/>
<path d="M3545 1736 c-119 -284 -125 -749 -14 -1083 18 -54 24 -63 45 -63 13
0 24 1 24 3 0 2 -11 37 -25 78 -82 240 -100 531 -50 809 14 75 53 228 71 274
4 12 0 16 -15 16 -16 0 -26 -10 -36 -34z"/>
<path d="M3740 1767 c0 -2 9 -29 20 -61 33 -96 69 -275 80 -401 19 -202 -23
-510 -97 -701 -3 -10 3 -14 20 -14 24 0 29 8 57 96 90 282 95 633 14 934 -32
116 -48 150 -74 150 -11 0 -20 -2 -20 -3z"/>
<path d="M2399 1751 c-90 -28 -99 -54 -99 -275 0 -182 -7 -224 -46 -267 -14
-16 -13 -21 13 -60 l28 -42 5 -211 c5 -220 9 -238 53 -265 11 -7 44 -15 73
-18 53 -6 54 -5 54 21 0 21 -5 26 -24 26 -41 0 -83 20 -95 46 -7 16 -11 91
-11 203 0 178 0 179 -29 234 -26 50 -28 57 -14 69 35 29 43 73 43 248 0 204 6
224 75 241 38 10 45 15 45 35 0 26 -20 30 -71 15z"/>
<path d="M2520 1737 c0 -22 6 -26 39 -32 22 -4 49 -17 62 -31 23 -25 24 -33
29 -217 5 -175 7 -195 27 -230 l22 -37 -24 -47 c-24 -44 -25 -54 -25 -223 0
-100 -5 -190 -11 -208 -11 -32 -48 -52 -95 -52 -19 0 -24 -5 -24 -25 0 -22 4
-25 38 -25 53 0 104 29 124 70 15 29 18 64 18 218 0 189 7 230 47 274 15 17
15 19 0 36 -39 43 -47 86 -47 264 0 145 -3 179 -18 207 -23 47 -58 70 -114 77
-46 7 -48 6 -48 -19z"/>
<path d="M270 1389 c-135 -82 -246 -153 -248 -157 -1 -4 110 -76 247 -160 181
-110 258 -152 281 -152 31 0 31 0 28 47 -3 53 25 31 -243 192 -58 35 -104 67
-103 72 2 5 80 55 173 112 l170 103 3 47 3 47 -33 -1 c-24 0 -97 -39 -278
-150z"/>
<path d="M4522 1483 l3 -47 170 -103 c94 -57 170 -108 170 -113 0 -5 -76 -56
-170 -113 l-170 -103 -3 -47 c-3 -47 -3 -47 29 -47 23 0 97 40 280 152 137 83
249 154 249 158 0 4 -112 75 -249 158 -183 112 -257 152 -280 152 -32 0 -32 0
-29 -47z"/>
<path d="M650 1355 l0 -45 255 0 255 0 0 45 0 45 -255 0 -255 0 0 -45z"/>
<path d="M1690 1345 l0 -45 255 0 255 0 0 45 0 45 -255 0 -255 0 0 -45z"/>
<path d="M2860 1345 l0 -45 255 0 255 0 0 45 0 45 -255 0 -255 0 0 -45z"/>
<path d="M3940 1335 l0 -45 255 0 255 0 0 45 0 45 -255 0 -255 0 0 -45z"/>
<path d="M650 1105 l0 -45 253 2 252 3 3 43 3 42 -255 0 -256 0 0 -45z"/>
<path d="M1690 1095 l0 -45 253 2 252 3 3 43 3 42 -255 0 -256 0 0 -45z"/>
<path d="M2860 1095 l0 -45 253 2 252 3 3 43 3 42 -255 0 -256 0 0 -45z"/>
<path d="M3940 1085 l0 -45 253 2 252 3 3 43 3 42 -255 0 -256 0 0 -45z"/>
</g>
</svg>
