<svg id="svg" version="1.1" xmlns="http://www.w3.org/2000/svg" xmlns:xlink="http://www.w3.org/1999/xlink" width="400" height="403.125" viewBox="0, 0, 400,403.125"><g id="svgg"><path id="path0" d="M103.470 162.049 C 102.680 162.508,101.917 164.124,100.283 168.800 C 92.797 190.221,92.803 223.534,100.298 247.000 C 102.259 253.141,102.543 253.600,104.386 253.600 C 106.297 253.600,106.267 253.809,104.964 249.570 C 104.394 247.717,103.659 245.300,103.331 244.200 C 96.122 220.065,96.720 191.886,104.996 165.688 C 106.254 161.707,105.823 160.680,103.470 162.049 M117.497 161.837 C 117.367 161.967,117.529 162.912,117.857 163.937 C 120.394 171.856,122.066 178.721,123.602 187.517 C 126.850 206.123,124.991 229.087,118.620 249.036 C 117.258 253.304,117.281 253.600,118.977 253.600 C 123.521 253.600,128.794 229.047,128.798 207.865 C 128.803 184.394,122.127 157.206,117.497 161.837 M278.051 162.546 C 277.081 163.578,274.126 171.732,273.102 176.200 C 267.705 199.755,268.720 226.938,275.803 248.600 C 277.263 253.066,277.670 253.600,279.609 253.600 C 280.484 253.600,281.200 253.554,281.200 253.497 C 281.200 253.372,280.795 252.048,279.397 247.600 C 274.882 233.238,273.462 223.999,273.431 208.800 C 273.411 199.012,273.734 194.784,275.202 185.600 C 276.083 180.088,278.644 169.559,280.167 165.184 C 281.381 161.698,280.214 160.243,278.051 162.546 M292.400 162.224 C 292.400 162.567,292.928 164.412,293.573 166.324 C 300.782 187.696,302.104 213.521,297.128 235.800 C 296.119 240.319,294.279 247.180,293.346 249.899 C 292.246 253.109,292.328 253.600,293.962 253.600 C 297.681 253.600,302.511 234.817,303.681 215.802 C 304.787 197.818,301.288 173.439,296.183 163.567 C 295.253 161.769,292.400 160.756,292.400 162.224 M186.433 163.415 C 180.457 165.643,180.013 167.040,179.573 185.000 C 179.395 192.260,179.079 198.830,178.872 199.600 C 178.258 201.878,177.605 203.318,176.573 204.672 C 175.222 206.442,175.337 207.270,177.396 210.572 L 179.191 213.453 179.588 227.227 C 180.248 250.101,180.308 250.275,188.151 251.739 C 192.822 252.612,193.712 252.339,193.523 250.092 C 193.401 248.650,193.377 248.632,191.000 248.192 C 183.997 246.896,183.941 246.751,183.614 228.992 L 183.356 214.985 181.478 210.967 C 179.259 206.219,179.274 206.359,180.791 204.472 C 182.984 201.742,183.243 200.116,183.440 187.800 C 183.721 170.239,184.104 168.829,189.043 167.186 C 192.892 165.905,193.744 164.780,192.289 162.900 C 191.700 162.139,189.287 162.352,186.433 163.415 M196.957 163.429 C 196.536 165.106,197.349 166.322,199.082 166.605 C 205.731 167.693,206.358 169.014,206.834 182.941 C 207.385 199.073,207.690 201.637,209.396 204.500 L 210.789 206.839 209.243 210.119 C 207.070 214.732,207.165 213.970,206.851 229.420 C 206.504 246.579,206.221 247.337,199.864 248.180 C 197.406 248.506,196.800 248.946,196.800 250.400 C 196.800 253.890,205.960 251.862,208.779 247.748 C 210.476 245.273,210.799 242.928,210.812 233.013 C 210.834 216.510,211.516 211.823,214.368 208.575 C 215.646 207.120,215.634 206.529,214.297 205.131 C 211.730 202.446,211.252 199.625,210.987 185.600 C 210.742 172.605,210.427 170.030,208.763 167.406 C 206.324 163.560,197.657 160.641,196.957 163.429 M41.000 180.134 C 37.190 181.637,30.133 185.742,11.800 197.117 C 0.709 203.999,1.251 203.439,3.891 205.281 C 6.945 207.411,25.824 219.200,26.181 219.200 C 26.263 219.200,28.460 220.487,31.065 222.059 C 37.892 226.182,41.899 228.054,43.600 227.915 L 45.000 227.800 45.119 225.059 C 45.301 220.877,44.998 220.597,31.600 212.601 C 22.409 207.116,18.344 204.372,18.482 203.745 C 18.614 203.146,19.922 202.296,34.474 193.356 C 45.726 186.443,45.186 186.990,45.195 182.500 L 45.200 179.600 43.700 179.630 C 42.875 179.647,41.660 179.874,41.000 180.134 M353.467 180.667 C 353.137 180.996,353.116 185.087,353.435 186.650 C 353.638 187.642,354.860 188.531,362.335 193.126 C 373.070 199.724,377.115 202.302,378.835 203.641 L 380.172 204.681 378.586 205.726 C 377.714 206.301,376.280 207.277,375.400 207.895 C 373.405 209.297,364.966 214.536,358.545 218.359 C 353.160 221.564,353.200 221.508,353.200 226.007 C 353.200 231.020,355.884 229.992,378.000 216.512 C 382.510 213.763,386.920 211.018,387.800 210.412 C 388.680 209.806,390.017 208.994,390.771 208.608 C 391.524 208.222,393.193 207.141,394.478 206.206 L 396.814 204.506 395.507 203.511 C 394.205 202.520,384.939 196.785,371.554 188.687 C 359.315 181.282,354.837 179.296,353.467 180.667 M50.884 193.896 L 51.000 197.400 70.800 197.400 L 90.600 197.400 90.600 194.000 L 90.600 190.600 70.684 190.496 L 50.769 190.393 50.884 193.896 M132.084 194.696 L 132.200 198.200 152.000 198.200 L 171.800 198.200 171.800 194.800 L 171.800 191.400 151.884 191.296 L 131.969 191.193 132.084 194.696 M223.684 194.700 L 223.800 198.200 243.400 198.200 L 263.000 198.200 263.116 194.700 L 263.231 191.200 243.400 191.200 L 223.569 191.200 223.684 194.700 M307.844 192.629 C 307.490 193.552,307.556 198.111,307.932 198.704 C 308.184 199.100,312.432 199.186,327.826 199.104 L 347.400 199.000 347.400 195.600 L 347.400 192.200 327.744 192.096 C 310.080 192.003,308.064 192.057,307.844 192.629 M50.800 213.373 C 50.800 217.593,48.472 217.193,71.200 216.870 L 90.200 216.600 90.467 213.608 C 90.614 211.963,90.648 210.478,90.543 210.308 C 90.439 210.139,81.453 210.000,70.576 210.000 L 50.800 210.000 50.800 213.373 M132.084 214.296 L 132.200 217.800 151.600 217.654 C 162.270 217.573,171.118 217.393,171.262 217.254 C 171.406 217.114,171.586 215.650,171.662 214.000 L 171.800 211.000 151.884 210.896 L 131.969 210.793 132.084 214.296 M223.684 214.300 L 223.800 217.800 242.800 217.667 C 265.553 217.507,263.200 217.933,263.200 213.973 L 263.200 210.800 243.384 210.800 L 223.569 210.800 223.684 214.300 M307.867 211.867 C 307.720 212.013,307.600 213.543,307.600 215.267 L 307.600 218.400 327.120 218.400 C 349.378 218.400,347.600 218.737,347.600 214.520 L 347.600 211.600 327.867 211.600 C 317.013 211.600,308.013 211.720,307.867 211.867 " stroke="none" fill="#080705" fill-rule="evenodd"></path><path id="path1" d="M184.800 0.501 C 180.290 0.707,176.510 1.014,176.400 1.181 C 176.290 1.349,174.400 1.615,172.200 1.772 C 170.000 1.929,168.140 2.224,168.067 2.429 C 167.993 2.633,167.048 2.800,165.967 2.800 C 164.885 2.800,164.000 2.954,164.000 3.143 C 164.000 3.331,162.703 3.606,161.117 3.753 C 159.532 3.900,158.137 4.170,158.017 4.353 C 157.898 4.536,156.632 4.815,155.204 4.973 C 153.776 5.132,152.426 5.405,152.204 5.580 C 151.982 5.756,150.945 6.023,149.900 6.174 C 148.855 6.325,148.000 6.618,148.000 6.825 C 148.000 7.031,147.370 7.200,146.600 7.200 C 145.830 7.200,145.200 7.359,145.200 7.554 C 145.200 7.749,144.210 8.032,143.000 8.183 C 141.790 8.334,140.800 8.614,140.800 8.804 C 140.800 8.995,139.990 9.272,139.000 9.421 C 138.010 9.569,137.200 9.830,137.200 10.000 C 137.200 10.170,136.390 10.431,135.400 10.579 C 134.410 10.728,133.600 11.001,133.600 11.187 C 133.600 11.373,132.700 11.649,131.600 11.800 C 130.500 11.951,129.600 12.238,129.600 12.438 C 129.600 12.637,129.330 12.800,129.000 12.800 C 128.670 12.800,128.400 12.978,128.400 13.195 C 128.400 13.413,127.680 13.706,126.800 13.846 C 125.920 13.987,125.200 14.259,125.200 14.451 C 125.200 14.643,124.885 14.806,124.500 14.814 C 124.115 14.821,123.080 15.175,122.200 15.600 C 121.320 16.025,120.285 16.379,119.900 16.386 C 119.515 16.394,119.200 16.580,119.200 16.800 C 119.200 17.020,118.930 17.200,118.600 17.200 C 118.270 17.200,118.000 17.360,118.000 17.555 C 118.000 17.751,117.370 18.029,116.600 18.174 C 115.830 18.318,115.200 18.594,115.200 18.786 C 115.200 18.979,114.660 19.255,114.000 19.400 C 113.340 19.545,112.800 19.815,112.800 20.000 C 112.800 20.185,112.260 20.455,111.600 20.600 C 110.940 20.745,110.400 21.015,110.400 21.200 C 110.400 21.385,109.860 21.655,109.200 21.800 C 108.540 21.945,108.000 22.229,108.000 22.432 C 108.000 22.634,107.640 22.800,107.200 22.800 C 106.760 22.800,106.400 22.966,106.400 23.168 C 106.400 23.371,105.860 23.655,105.200 23.800 C 104.540 23.945,104.000 24.229,104.000 24.432 C 104.000 24.634,103.752 24.800,103.449 24.800 C 103.146 24.800,102.683 25.058,102.421 25.374 C 102.159 25.690,101.417 26.064,100.772 26.206 C 100.128 26.348,99.600 26.629,99.600 26.832 C 99.600 27.034,99.324 27.200,98.987 27.200 C 98.651 27.200,98.271 27.470,98.145 27.800 C 98.018 28.130,97.574 28.400,97.157 28.400 C 96.741 28.400,96.400 28.580,96.400 28.800 C 96.400 29.020,96.124 29.200,95.787 29.200 C 95.451 29.200,95.078 29.454,94.959 29.764 C 94.839 30.074,94.305 30.437,93.771 30.572 C 93.237 30.706,92.800 30.978,92.800 31.176 C 92.800 31.374,92.295 31.647,91.678 31.783 C 91.060 31.919,90.301 32.383,89.989 32.815 C 89.678 33.247,89.233 33.600,89.001 33.600 C 88.768 33.600,88.270 33.960,87.893 34.400 C 87.516 34.840,86.936 35.200,86.604 35.200 C 86.272 35.200,86.000 35.368,86.000 35.573 C 86.000 35.778,85.612 36.069,85.138 36.220 C 84.663 36.370,83.878 36.923,83.392 37.447 C 82.906 37.971,82.304 38.400,82.054 38.400 C 81.804 38.400,81.600 38.568,81.600 38.773 C 81.600 38.978,81.203 39.272,80.717 39.426 C 80.232 39.580,79.382 40.223,78.828 40.853 C 78.275 41.484,77.625 42.000,77.385 42.000 C 77.144 42.000,76.389 42.630,75.708 43.400 C 75.026 44.170,74.274 44.800,74.036 44.800 C 73.799 44.800,72.783 45.610,71.779 46.600 C 70.775 47.590,69.862 48.400,69.751 48.400 C 69.561 48.400,68.828 49.049,66.025 51.700 C 65.385 52.305,64.756 52.800,64.627 52.800 C 64.097 52.800,54.082 63.113,53.825 63.923 C 53.671 64.405,53.420 64.800,53.266 64.800 C 52.684 64.800,48.400 69.311,48.400 69.923 C 48.400 70.120,47.860 70.694,47.200 71.200 C 46.540 71.706,46.000 72.280,46.000 72.477 C 46.000 72.873,45.361 73.715,44.300 74.717 C 43.915 75.080,43.600 75.530,43.600 75.716 C 43.600 75.902,42.995 76.627,42.256 77.327 C 41.516 78.027,40.790 78.988,40.641 79.463 C 40.491 79.938,40.106 80.427,39.785 80.550 C 39.463 80.674,39.200 80.985,39.200 81.242 C 39.200 81.498,38.750 82.125,38.200 82.635 C 37.650 83.145,37.200 83.821,37.200 84.138 C 37.200 84.455,36.930 84.818,36.600 84.945 C 36.270 85.071,36.000 85.451,36.000 85.787 C 36.000 86.124,35.823 86.400,35.608 86.400 C 35.392 86.400,35.106 86.837,34.972 87.371 C 34.837 87.905,34.474 88.439,34.164 88.559 C 33.854 88.678,33.600 89.042,33.600 89.369 C 33.600 89.696,33.195 90.405,32.700 90.944 C 31.259 92.512,30.915 93.008,30.622 93.931 C 30.470 94.409,30.193 94.800,30.005 94.800 C 29.817 94.800,29.548 95.325,29.407 95.967 C 29.266 96.608,28.892 97.233,28.576 97.354 C 28.259 97.476,28.000 97.851,28.000 98.187 C 28.000 98.524,27.820 98.800,27.600 98.800 C 27.380 98.800,27.200 99.160,27.200 99.600 C 27.200 100.040,27.020 100.400,26.800 100.400 C 26.580 100.400,26.400 100.676,26.400 101.013 C 26.400 101.349,26.135 101.727,25.811 101.851 C 25.487 101.976,25.107 102.690,24.966 103.439 C 24.826 104.187,24.565 104.800,24.387 104.800 C 24.209 104.800,23.945 105.340,23.800 106.000 C 23.655 106.660,23.371 107.200,23.168 107.200 C 22.966 107.200,22.800 107.470,22.800 107.800 C 22.800 108.130,22.634 108.400,22.432 108.400 C 22.229 108.400,21.945 108.940,21.800 109.600 C 21.655 110.260,21.385 110.800,21.200 110.800 C 21.015 110.800,20.745 111.340,20.600 112.000 C 20.455 112.660,20.191 113.200,20.013 113.200 C 19.835 113.200,19.571 113.830,19.426 114.600 C 19.282 115.370,19.006 116.000,18.814 116.000 C 18.621 116.000,18.345 116.540,18.200 117.200 C 18.055 117.860,17.771 118.400,17.568 118.400 C 17.366 118.400,17.200 118.670,17.200 119.000 C 17.200 119.330,17.043 119.600,16.851 119.600 C 16.659 119.600,16.387 120.320,16.246 121.200 C 16.106 122.080,15.828 122.800,15.630 122.800 C 15.432 122.800,15.149 123.520,15.000 124.400 C 14.851 125.280,14.574 126.000,14.383 126.000 C 14.192 126.000,13.918 126.630,13.774 127.400 C 13.629 128.170,13.351 128.800,13.155 128.800 C 12.960 128.800,12.800 129.250,12.800 129.800 C 12.800 130.350,12.643 130.800,12.451 130.800 C 12.259 130.800,11.987 131.520,11.846 132.400 C 11.706 133.280,11.433 134.000,11.241 134.000 C 11.048 134.000,10.769 134.810,10.621 135.800 C 10.472 136.790,10.195 137.600,10.004 137.600 C 9.814 137.600,9.534 138.590,9.383 139.800 C 9.232 141.010,8.965 142.000,8.791 142.000 C 8.617 142.000,8.351 142.900,8.200 144.000 C 8.049 145.100,7.762 146.000,7.562 146.000 C 7.363 146.000,7.200 146.540,7.200 147.200 C 7.200 147.860,7.038 148.400,6.839 148.400 C 6.641 148.400,6.353 149.480,6.200 150.800 C 6.047 152.120,5.777 153.200,5.601 153.200 C 5.425 153.200,5.155 154.460,5.000 156.000 C 4.845 157.540,4.569 158.800,4.387 158.800 C 4.204 158.800,3.929 160.240,3.776 162.000 C 3.622 163.760,3.340 165.200,3.148 165.200 C 2.957 165.200,2.800 165.974,2.800 166.920 C 2.800 167.866,2.632 168.811,2.428 169.020 C 2.223 169.229,1.927 171.200,1.771 173.400 C 1.614 175.600,1.346 177.492,1.174 177.605 C -0.013 178.382,-0.011 224.419,1.175 225.196 C 1.346 225.308,1.614 227.200,1.771 229.400 C 1.927 231.600,2.223 233.571,2.428 233.780 C 2.632 233.989,2.800 234.934,2.800 235.880 C 2.800 236.826,2.961 237.600,3.158 237.600 C 3.355 237.600,3.644 239.040,3.800 240.800 C 3.956 242.560,4.226 244.000,4.401 244.000 C 4.576 244.000,4.845 245.260,5.000 246.800 C 5.155 248.340,5.425 249.600,5.601 249.600 C 5.777 249.600,6.047 250.680,6.200 252.000 C 6.353 253.320,6.641 254.400,6.839 254.400 C 7.038 254.400,7.200 254.940,7.200 255.600 C 7.200 256.260,7.363 256.800,7.562 256.800 C 7.762 256.800,8.049 257.700,8.200 258.800 C 8.351 259.900,8.617 260.800,8.791 260.800 C 8.965 260.800,9.232 261.790,9.383 263.000 C 9.534 264.210,9.814 265.200,10.004 265.200 C 10.195 265.200,10.472 266.010,10.621 267.000 C 10.769 267.990,11.048 268.800,11.241 268.800 C 11.433 268.800,11.706 269.520,11.846 270.400 C 11.987 271.280,12.259 272.000,12.451 272.000 C 12.643 272.000,12.800 272.450,12.800 273.000 C 12.800 273.550,12.960 274.000,13.155 274.000 C 13.351 274.000,13.629 274.630,13.774 275.400 C 13.918 276.170,14.185 276.800,14.367 276.800 C 14.549 276.800,14.813 277.520,14.954 278.400 C 15.094 279.280,15.385 280.000,15.600 280.000 C 15.815 280.000,16.106 280.720,16.246 281.600 C 16.387 282.480,16.659 283.200,16.851 283.200 C 17.043 283.200,17.200 283.470,17.200 283.800 C 17.200 284.130,17.366 284.400,17.568 284.400 C 17.771 284.400,18.055 284.940,18.200 285.600 C 18.345 286.260,18.621 286.800,18.814 286.800 C 19.006 286.800,19.282 287.430,19.426 288.200 C 19.571 288.970,19.835 289.600,20.013 289.600 C 20.191 289.600,20.455 290.140,20.600 290.800 C 20.745 291.460,21.015 292.000,21.200 292.000 C 21.385 292.000,21.655 292.540,21.800 293.200 C 21.945 293.860,22.229 294.400,22.432 294.400 C 22.634 294.400,22.800 294.670,22.800 295.000 C 22.800 295.330,22.966 295.600,23.168 295.600 C 23.371 295.600,23.655 296.140,23.800 296.800 C 23.945 297.460,24.209 298.000,24.387 298.000 C 24.565 298.000,24.826 298.613,24.966 299.361 C 25.107 300.110,25.487 300.824,25.811 300.949 C 26.135 301.073,26.400 301.451,26.400 301.787 C 26.400 302.124,26.580 302.400,26.800 302.400 C 27.020 302.400,27.200 302.760,27.200 303.200 C 27.200 303.640,27.380 304.000,27.600 304.000 C 27.820 304.000,28.000 304.276,28.000 304.613 C 28.000 304.949,28.259 305.324,28.576 305.446 C 28.892 305.567,29.266 306.192,29.407 306.833 C 29.548 307.475,29.817 308.000,30.005 308.000 C 30.193 308.000,30.470 308.391,30.622 308.869 C 30.915 309.792,31.259 310.288,32.700 311.856 C 33.195 312.395,33.600 313.104,33.600 313.431 C 33.600 313.758,33.854 314.122,34.164 314.241 C 34.474 314.361,34.837 314.895,34.972 315.429 C 35.106 315.963,35.392 316.400,35.608 316.400 C 35.823 316.400,36.000 316.676,36.000 317.013 C 36.000 317.349,36.270 317.729,36.600 317.855 C 36.930 317.982,37.200 318.345,37.200 318.662 C 37.200 318.979,37.650 319.655,38.200 320.165 C 38.750 320.675,39.200 321.302,39.200 321.558 C 39.200 321.815,39.463 322.126,39.785 322.250 C 40.106 322.373,40.491 322.862,40.641 323.337 C 40.790 323.812,41.516 324.773,42.256 325.473 C 42.995 326.173,43.600 326.898,43.600 327.084 C 43.600 327.270,43.915 327.720,44.300 328.083 C 45.361 329.085,46.000 329.927,46.000 330.323 C 46.000 330.520,46.540 331.094,47.200 331.600 C 47.860 332.106,48.400 332.680,48.400 332.877 C 48.400 333.489,52.684 338.000,53.266 338.000 C 53.420 338.000,53.671 338.395,53.825 338.877 C 54.082 339.687,64.097 350.000,64.627 350.000 C 64.756 350.000,65.385 350.495,66.025 351.100 C 68.828 353.751,69.561 354.400,69.751 354.400 C 69.862 354.400,70.775 355.210,71.779 356.200 C 72.783 357.190,73.799 358.000,74.036 358.000 C 74.274 358.000,75.026 358.630,75.708 359.400 C 76.389 360.170,77.144 360.800,77.385 360.800 C 77.625 360.800,78.275 361.316,78.828 361.947 C 79.382 362.577,80.232 363.220,80.717 363.374 C 81.203 363.528,81.600 363.822,81.600 364.027 C 81.600 364.232,81.804 364.400,82.054 364.400 C 82.304 364.400,82.906 364.829,83.392 365.353 C 83.878 365.877,84.663 366.430,85.138 366.580 C 85.612 366.731,86.000 367.022,86.000 367.227 C 86.000 367.432,86.272 367.600,86.604 367.600 C 86.936 367.600,87.516 367.960,87.893 368.400 C 88.270 368.840,88.808 369.200,89.089 369.200 C 89.370 369.200,89.600 369.380,89.600 369.600 C 89.600 369.820,89.870 370.000,90.200 370.000 C 90.530 370.000,90.800 370.168,90.800 370.373 C 90.800 370.578,91.197 370.872,91.681 371.026 C 92.166 371.180,92.809 371.552,93.110 371.853 C 93.411 372.154,93.895 372.400,94.186 372.400 C 94.477 372.400,94.818 372.670,94.945 373.000 C 95.071 373.330,95.451 373.600,95.787 373.600 C 96.124 373.600,96.400 373.780,96.400 374.000 C 96.400 374.220,96.741 374.400,97.157 374.400 C 97.574 374.400,98.018 374.670,98.145 375.000 C 98.271 375.330,98.651 375.600,98.987 375.600 C 99.324 375.600,99.600 375.766,99.600 375.968 C 99.600 376.171,100.128 376.452,100.772 376.594 C 101.417 376.736,102.159 377.110,102.421 377.426 C 102.683 377.742,103.146 378.000,103.449 378.000 C 103.752 378.000,104.000 378.166,104.000 378.368 C 104.000 378.571,104.540 378.855,105.200 379.000 C 105.860 379.145,106.400 379.429,106.400 379.632 C 106.400 379.834,106.760 380.000,107.200 380.000 C 107.640 380.000,108.000 380.166,108.000 380.368 C 108.000 380.571,108.540 380.855,109.200 381.000 C 109.860 381.145,110.400 381.415,110.400 381.600 C 110.400 381.785,110.940 382.055,111.600 382.200 C 112.260 382.345,112.800 382.615,112.800 382.800 C 112.800 382.985,113.340 383.255,114.000 383.400 C 114.660 383.545,115.200 383.821,115.200 384.014 C 115.200 384.206,115.830 384.482,116.600 384.626 C 117.370 384.771,118.000 385.049,118.000 385.245 C 118.000 385.440,118.270 385.600,118.600 385.600 C 118.930 385.600,119.200 385.780,119.200 386.000 C 119.200 386.220,119.515 386.406,119.900 386.414 C 120.285 386.421,121.320 386.775,122.200 387.200 C 123.080 387.625,124.115 387.979,124.500 387.986 C 124.885 387.994,125.200 388.157,125.200 388.349 C 125.200 388.541,125.920 388.813,126.800 388.954 C 127.680 389.094,128.400 389.387,128.400 389.605 C 128.400 389.822,128.670 390.000,129.000 390.000 C 129.330 390.000,129.600 390.163,129.600 390.362 C 129.600 390.562,130.500 390.849,131.600 391.000 C 132.700 391.151,133.600 391.427,133.600 391.613 C 133.600 391.799,134.410 392.072,135.400 392.221 C 136.390 392.369,137.200 392.630,137.200 392.800 C 137.200 392.970,138.010 393.231,139.000 393.379 C 139.990 393.528,140.800 393.805,140.800 393.996 C 140.800 394.186,141.790 394.466,143.000 394.617 C 144.210 394.768,145.200 395.051,145.200 395.246 C 145.200 395.441,145.830 395.600,146.600 395.600 C 147.370 395.600,148.000 395.769,148.000 395.975 C 148.000 396.182,148.855 396.475,149.900 396.626 C 150.945 396.777,151.982 397.044,152.204 397.220 C 152.426 397.395,153.776 397.668,155.204 397.827 C 156.632 397.985,157.898 398.264,158.017 398.447 C 158.137 398.630,159.532 398.900,161.117 399.047 C 162.703 399.194,164.000 399.469,164.000 399.657 C 164.000 399.846,164.885 400.000,165.967 400.000 C 167.048 400.000,167.993 400.167,168.067 400.371 C 168.140 400.576,170.000 400.871,172.200 401.028 C 174.400 401.185,176.290 401.447,176.400 401.609 C 177.235 402.839,222.765 402.839,223.600 401.609 C 223.710 401.447,225.600 401.185,227.800 401.028 C 230.000 400.871,231.860 400.576,231.933 400.371 C 232.007 400.167,232.952 400.000,234.033 400.000 C 235.115 400.000,236.000 399.846,236.000 399.657 C 236.000 399.469,237.297 399.194,238.883 399.047 C 240.468 398.900,241.863 398.630,241.983 398.447 C 242.102 398.264,243.368 397.985,244.796 397.827 C 246.224 397.668,247.574 397.395,247.796 397.220 C 248.018 397.044,249.055 396.777,250.100 396.626 C 251.145 396.475,252.000 396.182,252.000 395.975 C 252.000 395.769,252.630 395.600,253.400 395.600 C 254.170 395.600,254.800 395.441,254.800 395.246 C 254.800 395.051,255.790 394.768,257.000 394.617 C 258.210 394.466,259.200 394.186,259.200 393.996 C 259.200 393.805,260.010 393.528,261.000 393.379 C 261.990 393.231,262.800 392.970,262.800 392.800 C 262.800 392.630,263.610 392.369,264.600 392.221 C 265.590 392.072,266.400 391.799,266.400 391.613 C 266.400 391.427,267.300 391.151,268.400 391.000 C 269.500 390.849,270.400 390.562,270.400 390.362 C 270.400 390.163,270.670 390.000,271.000 390.000 C 271.330 390.000,271.600 389.822,271.600 389.605 C 271.600 389.387,272.320 389.094,273.200 388.954 C 274.080 388.813,274.800 388.541,274.800 388.349 C 274.800 388.157,275.115 387.994,275.500 387.986 C 275.885 387.979,276.920 387.625,277.800 387.200 C 278.680 386.775,279.715 386.421,280.100 386.414 C 280.485 386.406,280.800 386.220,280.800 386.000 C 280.800 385.780,281.070 385.600,281.400 385.600 C 281.730 385.600,282.000 385.440,282.000 385.245 C 282.000 385.049,282.630 384.771,283.400 384.626 C 284.170 384.482,284.800 384.206,284.800 384.014 C 284.800 383.821,285.340 383.545,286.000 383.400 C 286.660 383.255,287.200 382.985,287.200 382.800 C 287.200 382.615,287.740 382.345,288.400 382.200 C 289.060 382.055,289.600 381.785,289.600 381.600 C 289.600 381.415,290.140 381.145,290.800 381.000 C 291.460 380.855,292.000 380.571,292.000 380.368 C 292.000 380.166,292.360 380.000,292.800 380.000 C 293.240 380.000,293.600 379.834,293.600 379.632 C 293.600 379.429,294.140 379.145,294.800 379.000 C 295.460 378.855,296.000 378.575,296.000 378.378 C 296.000 378.007,299.232 376.400,299.978 376.400 C 300.210 376.400,300.400 376.220,300.400 376.000 C 300.400 375.780,300.676 375.600,301.013 375.600 C 301.349 375.600,301.729 375.330,301.855 375.000 C 301.982 374.670,302.426 374.400,302.843 374.400 C 303.259 374.400,303.600 374.220,303.600 374.000 C 303.600 373.780,303.876 373.600,304.213 373.600 C 304.549 373.600,304.922 373.346,305.041 373.036 C 305.161 372.726,305.695 372.363,306.229 372.228 C 306.763 372.094,307.200 371.822,307.200 371.624 C 307.200 371.426,307.705 371.153,308.322 371.017 C 308.940 370.881,309.699 370.417,310.011 369.985 C 310.322 369.553,310.767 369.200,310.999 369.200 C 311.232 369.200,311.730 368.840,312.107 368.400 C 312.484 367.960,313.064 367.600,313.396 367.600 C 313.728 367.600,314.000 367.432,314.000 367.227 C 314.000 367.022,314.388 366.731,314.862 366.580 C 315.337 366.430,316.122 365.877,316.608 365.353 C 317.094 364.829,317.696 364.400,317.946 364.400 C 318.196 364.400,318.400 364.232,318.400 364.027 C 318.400 363.822,318.797 363.528,319.283 363.374 C 319.768 363.220,320.618 362.577,321.172 361.947 C 321.725 361.316,322.363 360.800,322.589 360.799 C 322.815 360.799,323.677 360.079,324.505 359.199 C 325.333 358.320,326.209 357.600,326.452 357.600 C 326.695 357.600,327.592 356.880,328.446 356.000 C 329.300 355.120,330.103 354.400,330.230 354.400 C 330.357 354.400,330.985 353.905,331.625 353.300 C 334.473 350.607,335.163 350.000,335.379 350.000 C 335.904 350.000,345.920 339.682,346.175 338.877 C 346.329 338.395,346.580 338.000,346.734 338.000 C 347.316 338.000,351.600 333.489,351.600 332.877 C 351.600 332.680,352.140 332.106,352.800 331.600 C 353.460 331.094,354.000 330.520,354.000 330.323 C 354.000 329.927,354.639 329.085,355.700 328.083 C 356.085 327.720,356.400 327.270,356.400 327.084 C 356.400 326.898,357.005 326.173,357.744 325.473 C 358.484 324.773,359.210 323.812,359.359 323.337 C 359.509 322.862,359.894 322.373,360.215 322.250 C 360.537 322.126,360.800 321.815,360.800 321.558 C 360.800 321.302,361.250 320.675,361.800 320.165 C 362.350 319.655,362.800 318.979,362.800 318.662 C 362.800 318.345,363.070 317.982,363.400 317.855 C 363.730 317.729,364.000 317.349,364.000 317.013 C 364.000 316.676,364.177 316.400,364.392 316.400 C 364.608 316.400,364.894 315.963,365.028 315.429 C 365.163 314.895,365.526 314.361,365.836 314.241 C 366.146 314.122,366.400 313.758,366.400 313.431 C 366.400 313.104,366.805 312.395,367.300 311.856 C 368.741 310.288,369.085 309.792,369.378 308.869 C 369.530 308.391,369.807 308.000,369.995 308.000 C 370.183 308.000,370.452 307.475,370.593 306.833 C 370.734 306.192,371.108 305.567,371.424 305.446 C 371.741 305.324,372.000 304.949,372.000 304.613 C 372.000 304.276,372.180 304.000,372.400 304.000 C 372.620 304.000,372.800 303.640,372.800 303.200 C 372.800 302.760,372.980 302.400,373.200 302.400 C 373.420 302.400,373.600 302.124,373.600 301.787 C 373.600 301.451,373.865 301.073,374.189 300.949 C 374.513 300.824,374.893 300.110,375.034 299.361 C 375.174 298.613,375.435 298.000,375.613 298.000 C 375.791 298.000,376.055 297.460,376.200 296.800 C 376.345 296.140,376.629 295.600,376.832 295.600 C 377.034 295.600,377.200 295.330,377.200 295.000 C 377.200 294.670,377.366 294.400,377.568 294.400 C 377.771 294.400,378.055 293.860,378.200 293.200 C 378.345 292.540,378.615 292.000,378.800 292.000 C 378.985 292.000,379.255 291.460,379.400 290.800 C 379.545 290.140,379.809 289.600,379.987 289.600 C 380.165 289.600,380.429 288.970,380.574 288.200 C 380.718 287.430,380.994 286.800,381.186 286.800 C 381.379 286.800,381.655 286.260,381.800 285.600 C 381.945 284.940,382.229 284.400,382.432 284.400 C 382.634 284.400,382.800 284.130,382.800 283.800 C 382.800 283.470,382.957 283.200,383.149 283.200 C 383.341 283.200,383.613 282.480,383.754 281.600 C 383.894 280.720,384.172 280.000,384.370 280.000 C 384.568 280.000,384.851 279.280,385.000 278.400 C 385.149 277.520,385.426 276.800,385.617 276.800 C 385.808 276.800,386.082 276.170,386.226 275.400 C 386.371 274.630,386.649 274.000,386.845 274.000 C 387.040 274.000,387.200 273.550,387.200 273.000 C 387.200 272.450,387.357 272.000,387.549 272.000 C 387.741 272.000,388.013 271.280,388.154 270.400 C 388.294 269.520,388.567 268.800,388.759 268.800 C 388.952 268.800,389.231 267.990,389.379 267.000 C 389.528 266.010,389.805 265.200,389.996 265.200 C 390.186 265.200,390.466 264.210,390.617 263.000 C 390.768 261.790,391.035 260.800,391.209 260.800 C 391.383 260.800,391.649 259.900,391.800 258.800 C 391.951 257.700,392.238 256.800,392.438 256.800 C 392.637 256.800,392.800 256.260,392.800 255.600 C 392.800 254.940,392.962 254.400,393.161 254.400 C 393.359 254.400,393.647 253.320,393.800 252.000 C 393.953 250.680,394.223 249.600,394.399 249.600 C 394.575 249.600,394.845 248.340,395.000 246.800 C 395.155 245.260,395.424 244.000,395.599 244.000 C 395.774 244.000,396.044 242.560,396.200 240.800 C 396.356 239.040,396.645 237.600,396.842 237.600 C 397.039 237.600,397.200 236.826,397.200 235.880 C 397.200 234.934,397.368 233.989,397.572 233.780 C 397.777 233.571,398.073 231.600,398.229 229.400 C 398.386 227.200,398.654 225.308,398.825 225.196 C 400.004 224.424,400.007 178.378,398.828 177.606 C 398.655 177.492,398.386 175.600,398.229 173.400 C 398.073 171.200,397.777 169.229,397.572 169.020 C 397.368 168.811,397.200 167.866,397.200 166.920 C 397.200 165.974,397.039 165.200,396.842 165.200 C 396.645 165.200,396.356 163.760,396.200 162.000 C 396.044 160.240,395.774 158.800,395.599 158.800 C 395.424 158.800,395.155 157.540,395.000 156.000 C 394.845 154.460,394.575 153.200,394.399 153.200 C 394.223 153.200,393.953 152.120,393.800 150.800 C 393.647 149.480,393.359 148.400,393.161 148.400 C 392.962 148.400,392.800 147.860,392.800 147.200 C 392.800 146.540,392.637 146.000,392.438 146.000 C 392.238 146.000,391.951 145.100,391.800 144.000 C 391.649 142.900,391.383 142.000,391.209 142.000 C 391.035 142.000,390.768 141.010,390.617 139.800 C 390.466 138.590,390.186 137.600,389.996 137.600 C 389.805 137.600,389.528 136.790,389.379 135.800 C 389.231 134.810,388.952 134.000,388.759 134.000 C 388.567 134.000,388.294 133.280,388.154 132.400 C 388.013 131.520,387.741 130.800,387.549 130.800 C 387.357 130.800,387.200 130.350,387.200 129.800 C 387.200 129.250,387.040 128.800,386.845 128.800 C 386.649 128.800,386.371 128.170,386.226 127.400 C 386.082 126.630,385.808 126.000,385.617 126.000 C 385.426 126.000,385.149 125.280,385.000 124.400 C 384.851 123.520,384.568 122.800,384.370 122.800 C 384.172 122.800,383.894 122.080,383.754 121.200 C 383.613 120.320,383.341 119.600,383.149 119.600 C 382.957 119.600,382.800 119.330,382.800 119.000 C 382.800 118.670,382.634 118.400,382.432 118.400 C 382.229 118.400,381.945 117.860,381.800 117.200 C 381.655 116.540,381.379 116.000,381.186 116.000 C 380.994 116.000,380.718 115.370,380.574 114.600 C 380.429 113.830,380.165 113.200,379.987 113.200 C 379.809 113.200,379.545 112.660,379.400 112.000 C 379.255 111.340,378.985 110.800,378.800 110.800 C 378.615 110.800,378.345 110.260,378.200 109.600 C 378.055 108.940,377.771 108.400,377.568 108.400 C 377.366 108.400,377.200 108.130,377.200 107.800 C 377.200 107.470,377.034 107.200,376.832 107.200 C 376.629 107.200,376.345 106.660,376.200 106.000 C 376.055 105.340,375.791 104.800,375.613 104.800 C 375.435 104.800,375.174 104.187,375.034 103.439 C 374.893 102.690,374.513 101.976,374.189 101.851 C 373.865 101.727,373.600 101.349,373.600 101.013 C 373.600 100.676,373.420 100.400,373.200 100.400 C 372.980 100.400,372.800 100.040,372.800 99.600 C 372.800 99.160,372.620 98.800,372.400 98.800 C 372.180 98.800,372.000 98.524,372.000 98.187 C 372.000 97.851,371.741 97.476,371.424 97.354 C 371.108 97.233,370.734 96.608,370.593 95.967 C 370.452 95.325,370.183 94.800,369.995 94.800 C 369.807 94.800,369.530 94.409,369.378 93.931 C 369.085 93.008,368.741 92.512,367.300 90.944 C 366.805 90.405,366.400 89.696,366.400 89.369 C 366.400 89.042,366.146 88.678,365.836 88.559 C 365.526 88.439,365.163 87.905,365.028 87.371 C 364.894 86.837,364.608 86.400,364.392 86.400 C 364.177 86.400,364.000 86.124,364.000 85.787 C 364.000 85.451,363.730 85.071,363.400 84.945 C 363.070 84.818,362.800 84.455,362.800 84.138 C 362.800 83.821,362.350 83.145,361.800 82.635 C 361.250 82.125,360.800 81.498,360.800 81.242 C 360.800 80.985,360.537 80.674,360.215 80.550 C 359.894 80.427,359.509 79.938,359.359 79.463 C 359.210 78.988,358.484 78.027,357.744 77.327 C 357.005 76.627,356.400 75.902,356.400 75.716 C 356.400 75.530,356.085 75.080,355.700 74.717 C 354.639 73.715,354.000 72.873,354.000 72.477 C 354.000 72.280,353.460 71.706,352.800 71.200 C 352.140 70.694,351.600 70.120,351.600 69.923 C 351.600 69.311,347.316 64.800,346.734 64.800 C 346.580 64.800,346.329 64.405,346.175 63.923 C 345.918 63.113,335.903 52.800,335.373 52.800 C 335.244 52.800,334.615 52.305,333.975 51.700 C 331.133 49.012,330.437 48.400,330.225 48.400 C 330.101 48.400,329.300 47.680,328.446 46.800 C 327.592 45.920,326.695 45.200,326.452 45.200 C 326.209 45.200,325.333 44.480,324.505 43.601 C 323.677 42.721,322.815 42.001,322.589 42.001 C 322.363 42.000,321.725 41.484,321.172 40.853 C 320.618 40.223,319.768 39.580,319.283 39.426 C 318.797 39.272,318.400 38.978,318.400 38.773 C 318.400 38.568,318.196 38.400,317.946 38.400 C 317.696 38.400,317.094 37.971,316.608 37.447 C 316.122 36.923,315.337 36.370,314.862 36.220 C 314.388 36.069,314.000 35.778,314.000 35.573 C 314.000 35.368,313.728 35.200,313.396 35.200 C 313.064 35.200,312.484 34.840,312.107 34.400 C 311.730 33.960,311.192 33.600,310.911 33.600 C 310.630 33.600,310.400 33.420,310.400 33.200 C 310.400 32.980,310.130 32.800,309.800 32.800 C 309.470 32.800,309.200 32.632,309.200 32.427 C 309.200 32.222,308.803 31.928,308.319 31.774 C 307.834 31.620,307.191 31.248,306.890 30.947 C 306.589 30.646,306.105 30.400,305.814 30.400 C 305.523 30.400,305.182 30.130,305.055 29.800 C 304.929 29.470,304.549 29.200,304.213 29.200 C 303.876 29.200,303.600 29.020,303.600 28.800 C 303.600 28.580,303.259 28.400,302.843 28.400 C 302.426 28.400,301.982 28.130,301.855 27.800 C 301.729 27.470,301.349 27.200,301.013 27.200 C 300.676 27.200,300.400 27.020,300.400 26.800 C 300.400 26.580,300.210 26.400,299.978 26.400 C 299.232 26.400,296.000 24.793,296.000 24.422 C 296.000 24.225,295.460 23.945,294.800 23.800 C 294.140 23.655,293.600 23.371,293.600 23.168 C 293.600 22.966,293.240 22.800,292.800 22.800 C 292.360 22.800,292.000 22.634,292.000 22.432 C 292.000 22.229,291.460 21.945,290.800 21.800 C 290.140 21.655,289.600 21.385,289.600 21.200 C 289.600 21.015,289.060 20.745,288.400 20.600 C 287.740 20.455,287.200 20.185,287.200 20.000 C 287.200 19.815,286.660 19.545,286.000 19.400 C 285.340 19.255,284.800 18.979,284.800 18.786 C 284.800 18.594,284.170 18.318,283.400 18.174 C 282.630 18.029,282.000 17.751,282.000 17.555 C 282.000 17.360,281.730 17.200,281.400 17.200 C 281.070 17.200,280.800 17.020,280.800 16.800 C 280.800 16.580,280.485 16.394,280.100 16.386 C 279.715 16.379,278.680 16.025,277.800 15.600 C 276.920 15.175,275.885 14.821,275.500 14.814 C 275.115 14.806,274.800 14.643,274.800 14.451 C 274.800 14.259,274.080 13.987,273.200 13.846 C 272.320 13.706,271.600 13.413,271.600 13.195 C 271.600 12.978,271.330 12.800,271.000 12.800 C 270.670 12.800,270.400 12.637,270.400 12.438 C 270.400 12.238,269.500 11.951,268.400 11.800 C 267.300 11.649,266.400 11.373,266.400 11.187 C 266.400 11.001,265.590 10.728,264.600 10.579 C 263.610 10.431,262.800 10.170,262.800 10.000 C 262.800 9.830,261.990 9.569,261.000 9.421 C 260.010 9.272,259.200 8.995,259.200 8.804 C 259.200 8.614,258.210 8.334,257.000 8.183 C 255.790 8.032,254.800 7.749,254.800 7.554 C 254.800 7.359,254.170 7.200,253.400 7.200 C 252.630 7.200,252.000 7.031,252.000 6.825 C 252.000 6.618,251.145 6.325,250.100 6.174 C 249.055 6.023,248.018 5.756,247.796 5.580 C 247.574 5.405,246.224 5.132,244.796 4.973 C 243.368 4.815,242.102 4.536,241.983 4.353 C 241.863 4.170,240.468 3.900,238.883 3.753 C 237.297 3.606,236.000 3.331,236.000 3.143 C 236.000 2.954,235.115 2.800,234.033 2.800 C 232.952 2.800,232.007 2.633,231.933 2.429 C 231.860 2.224,230.000 1.929,227.800 1.772 C 225.600 1.615,223.710 1.357,223.600 1.199 C 222.972 0.296,198.792 -0.139,184.800 0.501 M105.796 161.993 C 105.930 162.210,105.570 163.872,104.996 165.688 C 96.720 191.886,96.122 220.065,103.331 244.200 C 103.659 245.300,104.394 247.717,104.964 249.570 C 106.267 253.809,106.297 253.600,104.386 253.600 C 102.543 253.600,102.259 253.141,100.298 247.000 C 92.168 221.546,92.921 185.666,102.036 164.137 C 102.946 161.988,105.051 160.788,105.796 161.993 M120.490 162.742 C 121.601 164.063,122.681 166.890,124.331 172.800 C 130.951 196.519,130.376 224.527,122.782 248.185 C 121.293 252.823,120.748 253.600,118.977 253.600 C 117.281 253.600,117.258 253.304,118.620 249.036 C 127.576 220.993,127.329 193.509,117.857 163.937 C 117.529 162.912,117.367 161.967,117.497 161.837 C 118.092 161.242,119.615 161.702,120.490 162.742 M280.794 162.500 C 280.791 162.995,280.509 164.203,280.167 165.184 C 278.644 169.559,276.083 180.088,275.202 185.600 C 273.734 194.784,273.411 199.012,273.431 208.800 C 273.462 223.999,274.882 233.238,279.397 247.600 C 280.795 252.048,281.200 253.372,281.200 253.497 C 281.200 253.554,280.484 253.600,279.609 253.600 C 277.670 253.600,277.263 253.066,275.803 248.600 C 267.738 223.936,267.595 191.221,275.453 168.446 C 277.241 163.264,278.314 161.600,279.870 161.600 C 280.570 161.600,280.799 161.823,280.794 162.500 M294.822 162.012 C 295.828 162.550,296.513 163.923,297.985 168.355 C 306.053 192.640,305.845 225.070,297.467 249.162 C 296.273 252.595,295.480 253.600,293.962 253.600 C 292.328 253.600,292.246 253.109,293.346 249.899 C 300.114 230.162,301.962 205.200,298.152 185.000 C 296.484 176.159,295.404 171.751,293.573 166.324 C 291.965 161.558,292.235 160.627,294.822 162.012 M192.289 162.900 C 193.744 164.780,192.892 165.905,189.043 167.186 C 184.104 168.829,183.721 170.239,183.440 187.800 C 183.243 200.116,182.984 201.742,180.791 204.472 C 179.274 206.359,179.259 206.219,181.478 210.967 L 183.356 214.985 183.614 228.992 C 183.941 246.751,183.997 246.896,191.000 248.192 C 193.377 248.632,193.401 248.650,193.523 250.092 C 193.712 252.339,192.822 252.612,188.151 251.739 C 180.308 250.275,180.248 250.101,179.588 227.227 L 179.191 213.453 177.396 210.572 C 175.337 207.270,175.222 206.442,176.573 204.672 C 177.605 203.318,178.258 201.878,178.872 199.600 C 179.079 198.830,179.395 192.260,179.573 185.000 C 179.939 170.047,180.280 167.848,182.576 165.624 C 184.882 163.388,191.279 161.594,192.289 162.900 M202.116 162.995 C 209.623 164.950,210.647 167.559,210.987 185.600 C 211.252 199.625,211.730 202.446,214.297 205.131 C 215.634 206.529,215.646 207.120,214.368 208.575 C 211.516 211.823,210.834 216.510,210.812 233.013 C 210.799 242.928,210.476 245.273,208.779 247.748 C 205.960 251.862,196.800 253.890,196.800 250.400 C 196.800 248.946,197.406 248.506,199.864 248.180 C 206.221 247.337,206.504 246.579,206.851 229.420 C 207.165 213.970,207.070 214.732,209.243 210.119 L 210.789 206.839 209.396 204.500 C 207.690 201.637,207.385 199.073,206.834 182.941 C 206.358 169.014,205.731 167.693,199.082 166.605 C 197.349 166.322,196.536 165.106,196.957 163.429 C 197.269 162.188,198.589 162.076,202.116 162.995 M45.195 182.500 C 45.186 186.990,45.726 186.443,34.474 193.356 C 19.922 202.296,18.614 203.146,18.482 203.745 C 18.344 204.372,22.409 207.116,31.600 212.601 C 44.998 220.597,45.301 220.877,45.119 225.059 L 45.000 227.800 43.600 227.915 C 41.899 228.054,37.892 226.182,31.065 222.059 C 28.460 220.487,26.263 219.200,26.181 219.200 C 25.824 219.200,6.945 207.411,3.891 205.281 C 1.251 203.439,0.709 203.999,11.800 197.117 C 35.509 182.406,40.452 179.696,43.700 179.630 L 45.200 179.600 45.195 182.500 M360.662 182.412 C 362.777 183.519,367.679 186.342,371.554 188.687 C 384.939 196.785,394.205 202.520,395.507 203.511 L 396.814 204.506 394.478 206.206 C 393.193 207.141,391.524 208.222,390.771 208.608 C 390.017 208.994,388.680 209.806,387.800 210.412 C 386.920 211.018,382.510 213.763,378.000 216.512 C 355.884 229.992,353.200 231.020,353.200 226.007 C 353.200 221.508,353.160 221.564,358.545 218.359 C 364.966 214.536,373.405 209.297,375.400 207.895 C 376.280 207.277,377.714 206.301,378.586 205.726 L 380.172 204.681 378.835 203.641 C 377.115 202.302,373.070 199.724,362.335 193.126 C 352.759 187.240,353.200 187.718,353.200 183.217 C 353.200 179.519,354.801 179.346,360.662 182.412 M90.600 194.000 L 90.600 197.400 70.800 197.400 L 51.000 197.400 50.884 193.896 L 50.769 190.393 70.684 190.496 L 90.600 190.600 90.600 194.000 M171.800 194.800 L 171.800 198.200 152.000 198.200 L 132.200 198.200 132.084 194.696 L 131.969 191.193 151.884 191.296 L 171.800 191.400 171.800 194.800 M263.116 194.700 L 263.000 198.200 243.400 198.200 L 223.800 198.200 223.684 194.700 L 223.569 191.200 243.400 191.200 L 263.231 191.200 263.116 194.700 M347.400 195.600 L 347.400 199.000 327.826 199.104 C 305.780 199.221,307.616 199.527,307.606 195.733 C 307.596 191.588,305.433 191.978,327.744 192.096 L 347.400 192.200 347.400 195.600 M90.543 210.308 C 90.648 210.478,90.614 211.963,90.467 213.608 L 90.200 216.600 71.200 216.870 C 48.472 217.193,50.800 217.593,50.800 213.373 L 50.800 210.000 70.576 210.000 C 81.453 210.000,90.439 210.139,90.543 210.308 M171.662 214.000 C 171.586 215.650,171.406 217.114,171.262 217.254 C 171.118 217.393,162.270 217.573,151.600 217.654 L 132.200 217.800 132.084 214.296 L 131.969 210.793 151.884 210.896 L 171.800 211.000 171.662 214.000 M263.200 213.973 C 263.200 217.933,265.553 217.507,242.800 217.667 L 223.800 217.800 223.684 214.300 L 223.569 210.800 243.384 210.800 L 263.200 210.800 263.200 213.973 M347.600 214.520 C 347.600 218.737,349.378 218.400,327.120 218.400 L 307.600 218.400 307.600 215.267 C 307.600 213.543,307.720 212.013,307.867 211.867 C 308.013 211.720,317.013 211.600,327.867 211.600 L 347.600 211.600 347.600 214.520 " stroke="none" fill="#cba43c" fill-rule="evenodd"></path></g></svg>