<?xml version="1.0" standalone="no"?>
<!DOCTYPE svg PUBLIC "-//W3C//DTD SVG 20010904//EN"
 "http://www.w3.org/TR/2001/REC-SVG-20010904/DTD/svg10.dtd">
<svg version="1.0" xmlns="http://www.w3.org/2000/svg"
 width="512.000000pt" height="512.000000pt" viewBox="0 0 512.000000 512.000000"
 preserveAspectRatio="xMidYMid meet">

<g transform="translate(0.000000,512.000000) scale(0.100000,-0.100000)"
fill="#000000" stroke="none">
<path d="M1295 3656 c-119 -284 -125 -749 -14 -1083 18 -54 24 -63 45 -63 13
0 24 1 24 3 0 2 -11 37 -25 78 -82 240 -100 531 -50 809 14 75 53 228 71 274
4 12 0 16 -15 16 -16 0 -26 -10 -36 -34z"/>
<path d="M1490 3687 c0 -2 9 -29 20 -61 33 -96 69 -275 80 -401 19 -202 -23
-510 -97 -701 -3 -10 3 -14 20 -14 24 0 29 8 57 96 90 282 95 633 14 934 -32
116 -48 150 -74 150 -11 0 -20 -2 -20 -3z"/>
<path d="M3535 3656 c-119 -284 -125 -749 -14 -1083 18 -54 24 -63 45 -63 13
0 24 1 24 3 0 2 -11 37 -25 78 -82 240 -100 531 -50 809 14 75 53 228 71 274
4 12 0 16 -15 16 -16 0 -26 -10 -36 -34z"/>
<path d="M3730 3687 c0 -2 9 -29 20 -61 33 -96 69 -275 80 -401 19 -202 -23
-510 -97 -701 -3 -10 3 -14 20 -14 24 0 29 8 57 96 90 282 95 633 14 934 -32
116 -48 150 -74 150 -11 0 -20 -2 -20 -3z"/>
<path d="M2389 3671 c-90 -28 -99 -54 -99 -275 0 -182 -7 -224 -46 -267 -14
-16 -13 -21 13 -60 l28 -42 5 -211 c5 -220 9 -238 53 -265 11 -7 44 -15 73
-18 53 -6 54 -5 54 21 0 21 -5 26 -24 26 -41 0 -83 20 -95 46 -7 16 -11 91
-11 203 0 178 0 179 -29 234 -26 50 -28 57 -14 69 35 29 43 73 43 248 0 204 6
224 75 241 38 10 45 15 45 35 0 26 -20 30 -71 15z"/>
<path d="M2510 3657 c0 -22 6 -26 39 -32 22 -4 49 -17 62 -31 23 -25 24 -33
29 -217 5 -175 7 -195 27 -230 l22 -37 -24 -47 c-24 -44 -25 -54 -25 -223 0
-100 -5 -190 -11 -208 -11 -32 -48 -52 -95 -52 -19 0 -24 -5 -24 -25 0 -22 4
-25 38 -25 53 0 104 29 124 70 15 29 18 64 18 218 0 189 7 230 47 274 15 17
15 19 0 36 -39 43 -47 86 -47 264 0 145 -3 179 -18 207 -23 47 -58 70 -114 77
-46 7 -48 6 -48 -19z"/>
<path d="M263 3312 c-160 -97 -242 -152 -240 -162 1 -8 110 -81 242 -162 178
-109 249 -147 273 -148 l33 0 -3 47 c-3 53 25 31 -243 192 -58 35 -104 67
-103 72 2 5 80 55 173 112 l170 103 3 47 3 47 -33 -1 c-24 0 -97 -39 -275
-147z"/>
<path d="M4512 3403 l3 -47 170 -103 c94 -57 170 -108 170 -113 0 -5 -76 -56
-170 -113 l-170 -103 -3 -47 c-3 -47 -3 -47 29 -47 23 0 97 40 280 152 137 83
249 154 249 158 0 4 -112 75 -249 158 -183 112 -257 152 -280 152 -32 0 -32 0
-29 -47z"/>
<path d="M640 3275 l0 -45 255 0 255 0 0 45 0 45 -255 0 -255 0 0 -45z"/>
<path d="M1680 3265 l0 -45 255 0 255 0 0 45 0 45 -255 0 -255 0 0 -45z"/>
<path d="M2850 3265 l0 -45 255 0 255 0 0 45 0 45 -255 0 -255 0 0 -45z"/>
<path d="M3930 3255 l0 -45 255 0 255 0 0 45 0 45 -255 0 -255 0 0 -45z"/>
<path d="M640 3025 l0 -45 253 2 252 3 3 43 3 42 -255 0 -256 0 0 -45z"/>
<path d="M1680 3015 l0 -45 253 2 252 3 3 43 3 42 -255 0 -256 0 0 -45z"/>
<path d="M2850 3015 l0 -45 253 2 252 3 3 43 3 42 -255 0 -256 0 0 -45z"/>
<path d="M3930 3005 l0 -45 253 2 252 3 3 43 3 42 -255 0 -256 0 0 -45z"/>
<path d="M1650 2035 l0 -475 25 0 25 0 0 475 0 475 -25 0 -25 0 0 -475z"/>
<path d="M4380 2035 l0 -475 25 0 25 0 0 475 0 475 -25 0 -25 0 0 -475z"/>
<path d="M382 2086 l3 -384 30 -44 c19 -26 52 -54 85 -73 48 -25 66 -29 135
-30 104 0 162 22 214 81 27 31 43 61 50 95 7 30 11 188 11 394 l0 345 -24 0
-25 0 -3 -368 -3 -369 -27 -40 c-78 -119 -303 -118 -373 1 l-25 43 0 366 0
367 -25 0 -26 0 3 -384z"/>
<path d="M3030 2015 l0 -455 163 0 c187 0 239 11 309 65 118 89 129 275 23
380 -25 26 -60 49 -84 56 -23 7 -41 14 -41 17 0 2 15 22 34 43 40 43 50 84 44
169 -5 72 -40 123 -108 158 -40 20 -58 22 -192 22 l-148 0 0 -455z m303 391
c18 -7 45 -28 61 -45 24 -25 31 -42 34 -90 6 -77 -16 -123 -73 -156 -38 -23
-52 -25 -158 -25 l-117 0 0 165 0 165 110 0 c72 0 122 -5 143 -14z m92 -393
c51 -27 90 -68 109 -115 41 -97 -4 -205 -109 -261 -35 -19 -60 -22 -192 -25
l-153 -4 0 217 0 217 153 -4 c129 -4 158 -7 192 -25z"/>
<path d="M1100 2205 l0 -115 -35 0 c-31 0 -35 -3 -35 -25 0 -22 4 -25 35 -25
l35 0 0 -240 0 -240 25 0 25 0 0 240 0 240 65 0 c63 0 65 1 65 25 0 24 -2 25
-65 25 l-65 0 0 115 0 115 -25 0 -25 0 0 -115z"/>
<path d="M2150 2205 l0 -115 -35 0 c-31 0 -35 -3 -35 -25 0 -22 4 -25 35 -25
l35 0 0 -240 0 -240 25 0 25 0 0 240 0 240 65 0 c63 0 65 1 65 25 0 24 -2 25
-65 25 l-65 0 0 115 0 115 -25 0 -25 0 0 -115z"/>
<path d="M4640 2205 l0 -115 -35 0 c-31 0 -35 -3 -35 -25 0 -22 4 -25 35 -25
l35 0 0 -240 0 -240 25 0 25 0 0 240 0 240 65 0 c63 0 65 1 65 25 0 24 -2 25
-65 25 l-65 0 0 115 0 115 -25 0 -25 0 0 -115z"/>
<path d="M1408 2259 c-24 -14 -23 -56 2 -69 44 -23 80 29 44 64 -18 19 -23 19
-46 5z"/>
<path d="M1898 2259 c-24 -14 -23 -56 2 -69 44 -23 80 29 44 64 -18 19 -23 19
-46 5z"/>
<path d="M3897 2090 c-57 -15 -90 -35 -131 -80 -52 -58 -68 -102 -69 -185 0
-84 19 -135 71 -188 50 -52 104 -78 174 -84 99 -9 194 32 247 106 21 30 21 30
2 41 -17 9 -27 4 -65 -34 -95 -96 -264 -86 -338 20 -26 36 -52 129 -42 146 3
5 116 8 251 8 l246 0 -7 41 c-13 83 -76 163 -153 195 -44 19 -139 26 -186 14z
m180 -71 c44 -21 85 -66 98 -106 l6 -23 -216 0 -215 0 19 38 c57 111 188 149
308 91z"/>
<path d="M1400 1825 l0 -265 30 0 30 0 0 265 0 265 -30 0 -30 0 0 -265z"/>
<path d="M1890 1825 l0 -265 30 0 30 0 0 265 0 265 -30 0 -30 0 0 -265z"/>
<path d="M2400 2086 c0 -2 49 -111 110 -241 l109 -236 -69 -150 -69 -150 30 3
c30 3 35 13 195 358 217 466 199 420 166 420 -26 0 -33 -12 -122 -205 -52
-113 -97 -205 -101 -205 -3 0 -48 91 -100 203 -87 184 -98 202 -122 205 -15 2
-27 1 -27 -2z"/>
</g>
</svg>
