<?xml version="1.0" standalone="no"?>
<!DOCTYPE svg PUBLIC "-//W3C//DTD SVG 20010904//EN"
 "http://www.w3.org/TR/2001/REC-SVG-20010904/DTD/svg10.dtd">
<svg version="1.0" xmlns="http://www.w3.org/2000/svg"
 width="512.000000pt" height="256.000000pt" viewBox="0 0 512.000000 256.000000"
 preserveAspectRatio="xMidYMid meet">

<g transform="translate(0.000000,256.000000) scale(0.100000,-0.100000)"
fill="#000000" stroke="none">
<path d="M1330 1979 l0 -570 38 3 37 3 3 568 2 567 -40 0 -40 0 0 -571z"/>
<path d="M2100 1979 l0 -570 38 3 37 3 3 568 2 567 -40 0 -40 0 0 -571z"/>
<path d="M2399 2541 c-89 -28 -99 -55 -99 -268 0 -184 -8 -228 -45 -263 l-24
-23 24 -29 c37 -44 45 -89 45 -274 0 -96 5 -185 11 -202 15 -43 52 -64 126
-70 63 -5 63 -5 63 22 0 23 -5 27 -42 32 -76 13 -78 19 -78 228 0 182 0 184
-29 240 -16 32 -24 59 -19 63 6 3 19 24 29 47 16 35 19 66 19 208 0 101 4 177
11 191 13 28 48 47 84 47 21 0 25 5 25 30 0 28 -2 30 -37 29 -21 0 -50 -4 -64
-8z"/>
<path d="M2520 2521 c0 -26 4 -31 24 -31 38 0 74 -17 88 -42 8 -16 14 -85 18
-213 5 -178 6 -192 28 -222 l23 -32 -23 -32 c-22 -29 -23 -41 -28 -236 -5
-196 -6 -206 -27 -223 -12 -9 -40 -20 -62 -24 -36 -5 -41 -10 -41 -32 0 -26 1
-26 65 -22 76 5 114 27 132 79 7 21 12 102 12 217 1 162 3 187 21 222 11 21
24 41 30 45 6 4 -1 21 -17 42 -28 36 -28 37 -33 232 -4 161 -9 202 -23 228
-22 41 -64 63 -133 70 l-54 6 0 -32z"/>
<path d="M2860 1979 l0 -570 38 3 37 3 3 568 2 567 -40 0 -40 0 0 -571z"/>
<path d="M3630 1979 l0 -570 38 3 37 3 3 568 2 567 -40 0 -40 0 0 -571z"/>
<path d="M383 2139 c-180 -110 -213 -134 -213 -154 0 -20 33 -44 215 -154 119
-72 218 -131 221 -131 3 0 4 18 2 41 l-3 41 -167 102 -167 101 27 16 c15 9 91
56 170 104 l142 86 0 40 c0 21 -3 39 -7 38 -5 0 -104 -59 -220 -130z"/>
<path d="M4410 2231 l0 -39 169 -103 c143 -87 167 -105 153 -114 -9 -7 -86
-53 -169 -104 l-153 -93 0 -39 c0 -21 3 -39 6 -39 5 0 409 243 456 275 14 9
-22 34 -217 153 -128 78 -236 142 -239 142 -3 0 -6 -18 -6 -39z"/>
<path d="M750 2105 l0 -35 215 0 215 0 0 35 0 35 -215 0 -215 0 0 -35z"/>
<path d="M1520 2105 l0 -35 215 0 215 0 0 35 0 35 -215 0 -215 0 0 -35z"/>
<path d="M3050 2105 l0 -35 215 0 215 0 0 35 0 35 -215 0 -215 0 0 -35z"/>
<path d="M3820 2105 l0 -35 215 0 215 0 0 35 0 35 -215 0 -215 0 0 -35z"/>
<path d="M750 1870 l0 -40 215 0 215 0 0 40 0 40 -215 0 -215 0 0 -40z"/>
<path d="M1520 1870 l0 -40 215 0 215 0 0 40 0 40 -215 0 -215 0 0 -40z"/>
<path d="M3050 1870 l0 -40 215 0 215 0 0 40 0 40 -215 0 -215 0 0 -40z"/>
<path d="M3820 1870 l0 -40 215 0 215 0 0 40 0 40 -215 0 -215 0 0 -40z"/>
<path d="M1780 570 l0 -350 30 0 30 0 0 350 0 350 -30 0 -30 0 0 -350z"/>
<path d="M3850 570 l0 -350 30 0 30 0 0 350 0 350 -30 0 -30 0 0 -350z"/>
<path d="M812 618 c3 -277 3 -284 27 -321 38 -63 130 -96 225 -82 55 9 102 38
133 84 23 33 23 39 23 317 l0 284 -25 0 -25 0 0 -268 c0 -241 -2 -271 -18
-302 -50 -93 -208 -97 -262 -7 -19 30 -20 52 -20 305 l0 272 -31 0 -30 0 3
-282z"/>
<path d="M2830 560 l0 -340 133 0 c161 0 199 10 253 64 64 63 78 148 38 227
-17 34 -68 77 -100 85 -26 7 -31 19 -11 27 22 8 47 72 47 119 0 61 -28 109
-80 136 -39 19 -60 22 -162 22 l-118 0 0 -340z m225 290 c48 -18 75 -58 75
-111 0 -87 -59 -129 -182 -129 l-58 0 0 125 0 125 69 0 c38 0 81 -4 96 -10z
m86 -303 c56 -38 82 -84 76 -140 -5 -60 -30 -95 -87 -124 -37 -19 -60 -23
-142 -23 l-98 0 0 155 0 155 109 0 c96 0 112 -3 142 -23z"/>
<path d="M1367 783 c-4 -3 -7 -44 -7 -90 0 -82 0 -83 -25 -83 -18 0 -25 -5
-25 -20 0 -15 7 -20 25 -20 l25 0 0 -175 0 -175 30 0 30 0 0 175 0 175 45 0
c38 0 45 3 45 20 0 17 -7 20 -45 20 l-45 0 0 90 c0 88 -1 90 -23 90 -13 0 -27
-3 -30 -7z"/>
<path d="M2167 783 c-4 -3 -7 -44 -7 -90 0 -82 0 -83 -25 -83 -18 0 -25 -5
-25 -20 0 -15 7 -20 25 -20 l25 0 0 -175 0 -175 30 0 30 0 0 175 0 175 45 0
c38 0 45 3 45 20 0 17 -7 20 -45 20 l-45 0 0 90 c0 88 -1 90 -23 90 -13 0 -27
-3 -30 -7z"/>
<path d="M4057 783 c-4 -3 -7 -44 -7 -90 0 -82 0 -83 -25 -83 -18 0 -25 -5
-25 -20 0 -15 7 -20 25 -20 l25 0 0 -175 0 -175 30 0 30 0 0 175 0 175 45 0
c38 0 45 3 45 20 0 17 -7 20 -45 20 l-45 0 0 90 c0 88 -1 90 -23 90 -13 0 -27
-3 -30 -7z"/>
<path d="M1602 738 c-28 -28 1 -64 43 -54 40 10 27 66 -15 66 -9 0 -21 -5 -28
-12z"/>
<path d="M1972 738 c-28 -28 1 -64 43 -54 40 10 27 66 -15 66 -9 0 -21 -5 -28
-12z"/>
<path d="M3442 599 c-98 -49 -138 -179 -86 -280 20 -41 79 -87 126 -100 82
-22 196 11 234 68 32 49 -17 59 -61 13 -54 -57 -147 -62 -207 -12 -32 27 -58
77 -58 112 0 19 6 20 179 20 106 0 182 4 186 10 10 17 -14 88 -42 121 -58 68
-184 91 -271 48z m180 -41 c37 -21 68 -61 68 -88 0 -6 -50 -10 -145 -10 -159
0 -164 3 -123 55 52 66 129 83 200 43z"/>
<path d="M1600 415 l0 -195 30 0 30 0 0 195 0 195 -30 0 -30 0 0 -195z"/>
<path d="M1970 415 l0 -195 30 0 30 0 0 195 0 195 -30 0 -30 0 0 -195z"/>
<path d="M2374 578 c8 -18 44 -98 81 -177 l67 -144 -50 -109 -50 -108 32 0
c35 0 24 -20 262 498 l33 72 -30 0 c-29 0 -33 -5 -98 -142 l-68 -143 -15 35
c-9 19 -39 83 -67 143 -48 101 -52 107 -81 107 l-30 0 14 -32z"/>
</g>
</svg>
